<svg xmlns:dc="http://purl.org/dc/elements/1.1/" xmlns:cc="http://creativecommons.org/ns#" xmlns:rdf="http://www.w3.org/1999/02/22-rdf-syntax-ns#" xmlns:svg="http://www.w3.org/2000/svg" xmlns="http://www.w3.org/2000/svg" xmlns:xlink="http://www.w3.org/1999/xlink" id="svg209297" viewBox="510 320 15 120" height="50px" width="150px" version="1.1">

        <g id="logo-center" transform="translate(290.51484374999995 0)">
      <image xlink:href="" id="icon_container" x="0" y="0" style="display: none;"></image>
      <g id="slogan" style="font-style:normal;font-weight:300;font-size:32px;line-height:1;font-family:'Montserrat Light Alt1';font-variant-ligatures:none;text-align:center;text-anchor:middle" transform="translate(0 0)">
        <path id="path209305" style="font-style:normal;font-weight:300;font-size:32px;line-height:1;font-family:'Montserrat Light Alt1';font-variant-ligatures:none;text-align:center;text-anchor:middle" d="M 415.8795,-20.928 V 0 h 1.632 v -20.928 h 8.064 V -22.4 h -17.76 v 1.472 z" stroke-width="0.7" stroke-linejoin="miter" stroke-miterlimit="2" fill="#e51c29" stroke="#e51c29" transform="translate(0 357.1354) translate(50 49.104) scale(1.1) translate(-407.8155 22.4)"></path>
        <path id="path209307" style="font-style:normal;font-weight:300;font-size:32px;line-height:1;font-family:'Montserrat Light Alt1';font-variant-ligatures:none;text-align:center;text-anchor:middle" d="m 437.1855,-1.888 c -0.928,0.384 -1.952,0.576 -3.008,0.576 -1.728,0 -3.168,-0.448 -4.384,-1.344 -1.216,-0.896 -2.048,-2.112 -2.432,-3.648 l 14.112,-2.752 c -0.096,-1.472 -0.448,-2.784 -1.152,-3.968 -0.704,-1.184 -1.632,-2.112 -2.784,-2.784 -1.152,-0.672 -2.464,-1.024 -3.904,-1.024 -1.568,0 -2.976,0.384 -4.192,1.088 -1.248,0.736 -2.208,1.728 -2.912,3.008 -0.704,1.28 -1.024,2.752 -1.024,4.384 0,1.664 0.352,3.104 1.088,4.384 0.736,1.28 1.76,2.304 3.072,3.008 1.312,0.736 2.784,1.088 4.48,1.088 1.28,0 2.464,-0.224 3.584,-0.672 1.056,-0.448 1.984,-1.12 2.72,-2.048 l -0.928,-1.056 c -0.64,0.8 -1.408,1.376 -2.336,1.76 z m -6.944,-12.64 c 0.992,-0.576 2.112,-0.896 3.392,-0.896 1.088,0 2.112,0.256 3.008,0.736 0.896,0.48 1.6,1.152 2.176,1.952 0.544,0.832 0.896,1.76 1.056,2.752 l -12.736,2.496 c -0.064,-0.416 -0.064,-0.736 -0.064,-0.992 0,-1.312 0.256,-2.528 0.832,-3.584 0.544,-1.056 1.312,-1.888 2.336,-2.464 z" stroke-width="0.7" stroke-linejoin="miter" stroke-miterlimit="2" fill="#e51c29" stroke="#e51c29" transform="translate(0 357.1354) translate(70.55900000000001 55.22879999999999) scale(1.1) translate(-425.5055 16.832)"></path>
        <path id="path209309" style="font-style:normal;font-weight:300;font-size:32px;line-height:1;font-family:'Montserrat Light Alt1';font-variant-ligatures:none;text-align:center;text-anchor:middle" d="m 448.7265,-0.96 c 1.28,0.736 2.72,1.088 4.352,1.088 1.344,0 2.56,-0.256 3.648,-0.768 1.088,-0.512 1.984,-1.28 2.688,-2.304 l -1.184,-0.864 c -0.608,0.832 -1.344,1.472 -2.24,1.888 -0.896,0.416 -1.856,0.608 -2.912,0.608 -1.312,0 -2.496,-0.288 -3.52,-0.864 -1.024,-0.576 -1.856,-1.408 -2.432,-2.496 -0.576,-1.056 -0.864,-2.272 -0.864,-3.68 0,-1.376 0.288,-2.592 0.864,-3.68 0.576,-1.056 1.408,-1.888 2.432,-2.464 1.024,-0.576 2.208,-0.896 3.52,-0.896 1.056,0 2.016,0.224 2.912,0.64 0.896,0.416 1.632,1.024 2.24,1.856 l 1.184,-0.864 c -0.704,-0.992 -1.6,-1.76 -2.688,-2.272 -1.088,-0.512 -2.304,-0.8 -3.648,-0.8 -1.632,0 -3.072,0.384 -4.352,1.088 -1.28,0.704 -2.304,1.728 -3.008,3.008 -0.736,1.28 -1.088,2.752 -1.088,4.384 0,1.632 0.352,3.104 1.088,4.384 0.704,1.28 1.728,2.304 3.008,3.008 z" stroke-width="0.7" stroke-linejoin="miter" stroke-miterlimit="2" fill="#e51c29" stroke="#e51c29" transform="translate(0 357.1354) translate(92.6965 55.22879999999999) scale(1.1) translate(-444.6305 16.832)"></path>
        <path id="path209311" style="font-style:normal;font-weight:300;font-size:32px;line-height:1;font-family:'Montserrat Light Alt1';font-variant-ligatures:none;text-align:center;text-anchor:middle" d="m 477.012,-15.008 c -1.216,-1.216 -2.88,-1.824 -4.96,-1.824 -1.536,0 -2.88,0.32 -4,0.96 -1.152,0.64 -1.984,1.504 -2.56,2.656 v -10.528 h -1.6 V 0 h 1.6 v -8.896 c 0,-1.984 0.544,-3.552 1.696,-4.736 1.12,-1.152 2.656,-1.76 4.64,-1.76 1.696,0 3.008,0.512 3.968,1.472 0.96,0.992 1.44,2.432 1.44,4.288 V 0 h 1.6 v -9.76 c 0,-2.272 -0.608,-4.032 -1.824,-5.248 z" stroke-width="0.7" stroke-linejoin="miter" stroke-miterlimit="2" fill="#e51c29" stroke="#e51c29" transform="translate(0 357.1354) translate(114.98415000000003 47.6256) scale(1.1) translate(-463.892 23.744)"></path>
        <path id="path209313" style="font-style:normal;font-weight:300;font-size:32px;line-height:1;font-family:'Montserrat Light Alt1';font-variant-ligatures:none;text-align:center;text-anchor:middle" d="m 498.5745,-15.008 c -1.216,-1.216 -2.88,-1.824 -4.96,-1.824 -1.568,0 -2.912,0.352 -4.064,0.992 -1.152,0.672 -1.984,1.6 -2.56,2.752 v -3.616 h -1.536 V 0 h 1.6 v -8.896 c 0,-1.984 0.544,-3.552 1.696,-4.736 1.12,-1.152 2.656,-1.76 4.64,-1.76 1.696,0 3.008,0.512 3.968,1.472 0.96,0.992 1.44,2.432 1.44,4.288 V 0 h 1.6 v -9.76 c 0,-2.272 -0.608,-4.032 -1.824,-5.248 z" stroke-width="0.7" stroke-linejoin="miter" stroke-miterlimit="2" fill="#e51c29" stroke="#e51c29" transform="translate(0 357.1354) translate(139.80290000000002 55.22879999999999) scale(1.1) translate(-485.4545 16.832)"></path>
        <path id="path209315" style="font-style:normal;font-weight:300;font-size:32px;line-height:1;font-family:'Montserrat Light Alt1';font-variant-ligatures:none;text-align:center;text-anchor:middle" d="m 509.3195,-0.96 c 1.28,0.736 2.688,1.088 4.288,1.088 1.568,0 2.976,-0.352 4.256,-1.088 1.28,-0.704 2.272,-1.728 3.008,-3.008 0.704,-1.28 1.088,-2.752 1.088,-4.384 0,-1.6 -0.384,-3.072 -1.088,-4.352 -0.736,-1.28 -1.728,-2.304 -3.008,-3.04 -1.28,-0.704 -2.688,-1.088 -4.256,-1.088 -1.6,0 -3.008,0.384 -4.288,1.088 -1.28,0.736 -2.272,1.76 -2.976,3.04 -0.736,1.28 -1.088,2.752 -1.088,4.352 0,1.632 0.352,3.104 1.088,4.384 0.704,1.28 1.696,2.304 2.976,3.008 z m 7.712,-1.248 c -1.024,0.608 -2.144,0.896 -3.424,0.896 -1.28,0 -2.432,-0.288 -3.456,-0.896 -1.024,-0.576 -1.824,-1.408 -2.4,-2.496 -0.576,-1.056 -0.864,-2.272 -0.864,-3.648 0,-1.344 0.288,-2.56 0.864,-3.648 0.576,-1.056 1.376,-1.888 2.4,-2.496 1.024,-0.576 2.176,-0.896 3.456,-0.896 1.28,0 2.4,0.32 3.424,0.896 1.024,0.608 1.824,1.44 2.4,2.496 0.576,1.088 0.896,2.304 0.896,3.648 0,1.376 -0.32,2.592 -0.896,3.648 -0.576,1.088 -1.376,1.92 -2.4,2.496 z" stroke-width="0.7" stroke-linejoin="miter" stroke-miterlimit="2" fill="#e51c29" stroke="#e51c29" transform="translate(0 357.1354) translate(162.684 55.22879999999999) scale(1.1) translate(-505.2555 16.832)"></path>
        <path id="path209317" style="font-style:normal;font-weight:300;font-size:32px;line-height:1;font-family:'Montserrat Light Alt1';font-variant-ligatures:none;text-align:center;text-anchor:middle" d="M 526.892,-23.744 V 0 h 1.6 v -23.744 z" stroke-width="0.7" stroke-linejoin="miter" stroke-miterlimit="2" fill="#e51c29" stroke="#e51c29" transform="translate(0 357.1354) translate(187.58415000000014 47.6256) scale(1.1) translate(-526.892 23.744)"></path>
        <path id="path209319" style="font-style:normal;font-weight:300;font-size:32px;line-height:1;font-family:'Montserrat Light Alt1';font-variant-ligatures:none;text-align:center;text-anchor:middle" d="m 537.507,-0.96 c 1.28,0.736 2.688,1.088 4.288,1.088 1.568,0 2.976,-0.352 4.256,-1.088 1.28,-0.704 2.272,-1.728 3.008,-3.008 0.704,-1.28 1.088,-2.752 1.088,-4.384 0,-1.6 -0.384,-3.072 -1.088,-4.352 -0.736,-1.28 -1.728,-2.304 -3.008,-3.04 -1.28,-0.704 -2.688,-1.088 -4.256,-1.088 -1.6,0 -3.008,0.384 -4.288,1.088 -1.28,0.736 -2.272,1.76 -2.976,3.04 -0.736,1.28 -1.088,2.752 -1.088,4.352 0,1.632 0.352,3.104 1.088,4.384 0.704,1.28 1.696,2.304 2.976,3.008 z m 7.712,-1.248 c -1.024,0.608 -2.144,0.896 -3.424,0.896 -1.28,0 -2.432,-0.288 -3.456,-0.896 -1.024,-0.576 -1.824,-1.408 -2.4,-2.496 -0.576,-1.056 -0.864,-2.272 -0.864,-3.648 0,-1.344 0.288,-2.56 0.864,-3.648 0.576,-1.056 1.376,-1.888 2.4,-2.496 1.024,-0.576 2.176,-0.896 3.456,-0.896 1.28,0 2.4,0.32 3.424,0.896 1.024,0.608 1.824,1.44 2.4,2.496 0.576,1.088 0.896,2.304 0.896,3.648 0,1.376 -0.32,2.592 -0.896,3.648 -0.576,1.088 -1.376,1.92 -2.4,2.496 z" stroke-width="0.7" stroke-linejoin="miter" stroke-miterlimit="2" fill="#e51c29" stroke="#e51c29" transform="translate(0 357.1354) translate(195.89025000000004 55.22879999999999) scale(1.1) translate(-533.443 16.832)"></path>
        <path id="path209321" style="font-style:normal;font-weight:300;font-size:32px;line-height:1;font-family:'Montserrat Light Alt1';font-variant-ligatures:none;text-align:center;text-anchor:middle" d="m 570.1195,-16.704 h -1.536 v 3.776 c -0.672,-1.216 -1.632,-2.176 -2.848,-2.88 -1.248,-0.672 -2.624,-1.024 -4.16,-1.024 -1.568,0 -2.976,0.352 -4.256,1.024 -1.28,0.704 -2.272,1.664 -2.976,2.88 -0.736,1.248 -1.088,2.656 -1.088,4.192 0,1.568 0.352,2.976 1.088,4.192 0.704,1.248 1.696,2.208 2.976,2.912 1.28,0.704 2.688,1.024 4.256,1.024 1.504,0 2.88,-0.32 4.096,-0.992 1.216,-0.64 2.144,-1.6 2.848,-2.816 V -1.6 c 0,2.24 -0.544,3.872 -1.6,4.928 -1.088,1.056 -2.72,1.568 -4.928,1.568 -1.344,0 -2.592,-0.192 -3.744,-0.64 -1.184,-0.416 -2.176,-1.024 -3.008,-1.792 l -0.864,1.216 c 0.832,0.832 1.92,1.504 3.296,1.952 1.344,0.48 2.816,0.704 4.352,0.704 2.688,0 4.736,-0.64 6.08,-1.984 1.344,-1.312 2.016,-3.36 2.016,-6.144 z m -4.896,13.824 c -1.056,0.576 -2.24,0.832 -3.52,0.832 -1.312,0 -2.496,-0.256 -3.52,-0.832 -1.024,-0.576 -1.856,-1.344 -2.432,-2.368 -0.576,-1.024 -0.864,-2.176 -0.864,-3.488 0,-1.28 0.288,-2.432 0.864,-3.456 0.576,-0.992 1.408,-1.76 2.432,-2.336 1.024,-0.576 2.208,-0.864 3.52,-0.864 1.28,0 2.464,0.288 3.52,0.864 1.024,0.576 1.856,1.344 2.432,2.336 0.576,1.024 0.896,2.176 0.896,3.456 0,1.312 -0.32,2.464 -0.896,3.488 -0.576,1.024 -1.408,1.792 -2.432,2.368 z" stroke-width="0.7" stroke-linejoin="miter" stroke-miterlimit="2" fill="#e51c29" stroke="#e51c29" transform="translate(0 357.1354) translate(218.7840000000001 55.22879999999999) scale(1.1) translate(-553.2555 16.832)"></path>
        <path id="path209323" style="font-style:normal;font-weight:300;font-size:32px;line-height:1;font-family:'Montserrat Light Alt1';font-variant-ligatures:none;text-align:center;text-anchor:middle" d="M 576.892,-16.704 V 0 h 1.6 v -16.704 z m -0.128,-4.416 c 0.256,0.256 0.544,0.352 0.928,0.352 0.352,0 0.672,-0.128 0.928,-0.384 0.256,-0.256 0.384,-0.544 0.384,-0.928 0,-0.352 -0.128,-0.64 -0.384,-0.896 -0.256,-0.256 -0.576,-0.384 -0.928,-0.384 -0.384,0 -0.672,0.128 -0.928,0.384 -0.256,0.256 -0.384,0.576 -0.384,0.928 0,0.384 0.128,0.672 0.384,0.928 z" stroke-width="0.7" stroke-linejoin="miter" stroke-miterlimit="2" fill="#e51c29" stroke="#e51c29" transform="translate(0 357.1354) translate(245.32095000000007 48.048) scale(1.1) translate(-576.38 23.36)"></path>
        <path id="path209325" style="font-style:normal;font-weight:300;font-size:32px;line-height:1;font-family:'Montserrat Light Alt1';font-variant-ligatures:none;text-align:center;text-anchor:middle" d="m 595.123,-1.888 c -0.928,0.384 -1.952,0.576 -3.008,0.576 -1.728,0 -3.168,-0.448 -4.384,-1.344 -1.216,-0.896 -2.048,-2.112 -2.432,-3.648 l 14.112,-2.752 c -0.096,-1.472 -0.448,-2.784 -1.152,-3.968 -0.704,-1.184 -1.632,-2.112 -2.784,-2.784 -1.152,-0.672 -2.464,-1.024 -3.904,-1.024 -1.568,0 -2.976,0.384 -4.192,1.088 -1.248,0.736 -2.208,1.728 -2.912,3.008 -0.704,1.28 -1.024,2.752 -1.024,4.384 0,1.664 0.352,3.104 1.088,4.384 0.736,1.28 1.76,2.304 3.072,3.008 1.312,0.736 2.784,1.088 4.48,1.088 1.28,0 2.464,-0.224 3.584,-0.672 1.056,-0.448 1.984,-1.12 2.72,-2.048 l -0.928,-1.056 c -0.64,0.8 -1.408,1.376 -2.336,1.76 z m -6.944,-12.64 c 0.992,-0.576 2.112,-0.896 3.392,-0.896 1.088,0 2.112,0.256 3.008,0.736 0.896,0.48 1.6,1.152 2.176,1.952 0.544,0.832 0.896,1.76 1.056,2.752 l -12.736,2.496 c -0.064,-0.416 -0.064,-0.736 -0.064,-0.992 0,-1.312 0.256,-2.528 0.832,-3.584 0.544,-1.056 1.312,-1.888 2.336,-2.464 z" stroke-width="0.7" stroke-linejoin="miter" stroke-miterlimit="2" fill="#e51c29" stroke="#e51c29" transform="translate(0 357.1354) translate(254.19025000000005 55.22879999999999) scale(1.1) translate(-583.443 16.832)"></path>
        <path id="path209327" style="font-style:normal;font-weight:300;font-size:32px;line-height:1;font-family:'Montserrat Light Alt1';font-variant-ligatures:none;text-align:center;text-anchor:middle" d="m 604.776,-0.48 c 1.216,0.416 2.496,0.608 3.84,0.608 2.08,0 3.712,-0.416 4.864,-1.248 1.152,-0.832 1.728,-1.92 1.728,-3.328 0,-1.024 -0.288,-1.856 -0.832,-2.464 -0.576,-0.576 -1.248,-1.024 -2.048,-1.28 -0.8,-0.256 -1.856,-0.512 -3.136,-0.768 -1.184,-0.224 -2.112,-0.448 -2.752,-0.64 -0.64,-0.192 -1.184,-0.512 -1.632,-0.928 -0.448,-0.416 -0.672,-0.992 -0.672,-1.76 0,-0.928 0.384,-1.696 1.184,-2.272 0.768,-0.576 1.952,-0.864 3.52,-0.864 0.896,0 1.792,0.128 2.688,0.384 0.864,0.256 1.632,0.64 2.336,1.12 l 0.736,-1.28 c -0.672,-0.48 -1.536,-0.864 -2.56,-1.184 -1.056,-0.288 -2.112,-0.448 -3.168,-0.448 -2.048,0 -3.616,0.448 -4.704,1.312 -1.088,0.864 -1.632,1.952 -1.632,3.264 0,1.088 0.288,1.952 0.864,2.56 0.576,0.64 1.248,1.088 2.08,1.344 0.8,0.288 1.856,0.544 3.2,0.768 1.12,0.224 2.016,0.416 2.656,0.608 0.64,0.192 1.152,0.512 1.6,0.896 0.448,0.416 0.672,0.96 0.672,1.664 0,0.992 -0.416,1.76 -1.216,2.304 -0.8,0.576 -2.048,0.832 -3.712,0.832 -1.184,0 -2.304,-0.192 -3.392,-0.576 -1.088,-0.384 -1.952,-0.864 -2.624,-1.44 l -0.736,1.28 c 0.672,0.64 1.632,1.152 2.848,1.536 z" stroke-width="0.7" stroke-linejoin="miter" stroke-miterlimit="2" fill="#e51c29" stroke="#e51c29" transform="translate(0 357.1354) translate(275.6237500000001 55.22879999999999) scale(1.1) translate(-601.928 16.832)"></path>
      </g>
      <g id="title" style="font-style:normal;font-weight:normal;font-size:72px;line-height:1;font-family:'Brandmark Sans 20 Dots Color';font-variant-ligatures:normal;text-align:center;text-anchor:middle" transform="translate(0 0)">
        <g id="path209330" aria-label="Y" transform="translate(0 292.949) translate(50 38.282) scale(1.25) translate(-374.00187 50.328)"> <path class="c1" d="M109.83102,87.70266h7.9209c-1.58447,11.37695-8.71289,14.68945-13.68164,15.62549v22.82593h-8.06445 v-22.82593c-5.61621-1.08008-14.04102-5.18457-14.04102-20.73779v-6.62451h8.06445v8.42456 c0,11.01709,6.98438,11.521,10.00879,11.521C102.70211,95.9114,108.53512,95.47952,109.83102,87.70266z" transform="translate(292.03706 -126.1498)" stroke-width="0" stroke-linejoin="miter" stroke-miterlimit="2" fill="#394a7a" stroke="#394a7a"></path> <path class="c3" d="M110.04684,79.85403c0-2.23218,1.80029-4.03223,4.03223-4.03223c2.23242,0,4.03271,1.80005,4.03271,4.03223 s-1.80029,4.03247-4.03271,4.03247C111.84713,83.8865,110.04684,82.0862,110.04684,79.85403z" transform="translate(292.03706 -126.1498)" stroke-width="0" stroke-linejoin="miter" stroke-miterlimit="2" fill="#e51c29" stroke="#e51c29"></path> </g>
        <g id="path209332" aria-label="E" transform="translate(0 292.949) translate(99.7925 38.462) scale(1.25) translate(-413.83587 50.184)"> <path class="c1" d="M103.63833,83.95852c-3.02441,0-10.00903,0.28784-10.00903,11.30493v11.521 c0,11.08887,6.98462,11.30493,10.00903,11.30493h11.80908v8.0647h-11.80908c-4.03247,0-18.07373-1.00806-18.07373-21.0979V97.0635 c0-20.0896,14.04126-21.09766,18.07373-21.09766h11.80908v7.99268H103.63833z" transform="translate(328.27127 -126.14984)" stroke-width="0" stroke-linejoin="miter" stroke-miterlimit="2" fill="#394a7a" stroke="#394a7a"></path> <path class="c3" d="M101.47817,101.02395c0-2.23218,1.80005-4.03247,4.03223-4.03247s4.03223,1.80029,4.03223,4.03247 s-1.80005,4.03223-4.03223,4.03223S101.47817,103.25613,101.47817,101.02395z" transform="translate(328.27127 -126.14984)" stroke-width="0" stroke-linejoin="miter" stroke-miterlimit="2" fill="#e51c29" stroke="#e51c29"></path> </g>
        <g id="path209334" aria-label="S" transform="translate(0 292.949) translate(141.96735000000007 37.202) scale(1.25) translate(-447.57575 51.192)"> <path class="c1" d="M117.71529,111.2488c0,15.40942-14.04102,15.91333-18.07373,15.91333 c-3.52832,0-14.90527-0.79199-17.49707-14.76123h7.99219c1.65625,6.62451,6.98486,6.98462,9.50488,6.98462 c3.02441,0,10.08105-0.50415,10.08105-8.13672c0-3.16821-2.59229-4.32031-10.36914-6.19263 c-7.27246-1.72803-17.20898-4.17627-17.20898-14.83325c0-14.25708,14.04102-15.26538,18.07324-15.26538 c3.52832,0,14.90527,0.79224,17.49756,14.76147h-7.92041c-1.65625-6.62476-7.05664-6.98462-9.57715-6.98462 c-3.02441,0-10.00879,0.57593-10.00879,7.48853c0,3.74438,2.73633,5.04053,11.01709,7.05664 C108.2104,98.93581,117.71529,101.24001,117.71529,111.2488z" transform="translate(365.43126 -126.14954)" stroke-width="0" stroke-linejoin="miter" stroke-miterlimit="2" fill="#394a7a" stroke="#394a7a"></path> </g>
        <g id="path209336" aria-label="M" transform="translate(0 292.949) translate(193.68078750000006 37.202) scale(1.25) translate(-488.9465 51.192)"> <path class="c1" d="M129.59734,95.98342v30.17065h-7.99268V94.25539c0-11.01709-5.83252-11.521-8.78467-11.521 c-3.02441,0-8.85693,0.50391-8.85693,11.521v1.65601v0.07202v18.50562l-7.99268-0.07202v-18.4336V95.9114v-1.65601 c0-11.01709-5.76025-11.521-8.78467-11.521s-8.78467,0.50391-8.78467,11.521v31.89868H70.3361V95.98342 c0-20.0896,12.81738-21.02588,16.84961-21.02588c2.52002,0,8.71289,0.36011,12.81689,5.90454 c4.10449-5.54443,10.2251-5.90454,12.81738-5.90454C116.77995,74.95754,129.59734,75.89382,129.59734,95.98342z" transform="translate(418.6104 -126.14954)" stroke-width="0" stroke-linejoin="miter" stroke-miterlimit="2" fill="#394a7a" stroke="#394a7a"></path> <path class="c3" d="M95.97038,122.1216c0-2.23218,1.80029-4.03223,4.03223-4.03223c2.23242,0,3.96045,1.80005,3.96045,4.03223 c0,2.23242-1.72803,4.03247-3.96045,4.03247C97.77068,126.15408,95.97038,124.35403,95.97038,122.1216z" transform="translate(418.6104 -126.14954)" stroke-width="0" stroke-linejoin="miter" stroke-miterlimit="2" fill="#e51c29" stroke="#e51c29"></path> </g>
        <g id="path209338" aria-label="I" transform="translate(0 292.949) translate(277.0179750000001 38.462) scale(1.25) translate(-555.61625 50.184)"> <path class="c1" d="M95.96878,75.96584h8.06494v50.18822h-8.06494V75.96584z" transform="translate(459.64747 -126.14984)" stroke-width="0" stroke-linejoin="miter" stroke-miterlimit="2" fill="#394a7a" stroke="#394a7a"></path> </g>
        <g id="path209340" aria-label="N" transform="translate(0 292.949) translate(296.33703750000006 37.202) scale(1.25) translate(-571.0715 51.192)"> <path class="c1" d="M118.11184,95.98342v18.50562h-7.99268V94.25539c0-11.01709-7.05615-11.521-10.08057-11.521 S90.0298,83.2383,90.0298,94.25539v31.89868h-8.06494V95.98342c0-20.0896,14.0415-21.02588,18.07373-21.02588 S118.11184,75.89382,118.11184,95.98342z" transform="translate(489.10664 -126.14954)" stroke-width="0" stroke-linejoin="miter" stroke-miterlimit="2" fill="#394a7a" stroke="#394a7a"></path> <path class="c3" d="M110.04739,122.1216c0-2.23218,1.7998-4.03223,4.03223-4.03223s4.03223,1.80005,4.03223,4.03223 c0,2.23242-1.7998,4.03247-4.03223,4.03247S110.04739,124.35403,110.04739,122.1216z" transform="translate(489.10664 -126.14954)" stroke-width="0" stroke-linejoin="miter" stroke-miterlimit="2" fill="#e51c29" stroke="#e51c29"></path> </g>
        <g id="path209342" aria-label="D" transform="translate(0 292.949) translate(350.67032500000005 38.462) scale(1.25) translate(-614.53813 50.184)"> <path class="c1" d="M117.53567,97.0635v7.99268c0,20.08984-14.04126,21.0979-18.07349,21.0979H83.69265V75.96584h15.76953 C103.49441,75.96584,117.53567,76.9739,117.53567,97.0635z M99.46218,83.95852h-7.70459v34.13086h7.70459 c3.02417,0,10.08081-0.21606,10.08081-11.23291V95.26345C109.54299,84.24636,102.48635,83.95852,99.46218,83.95852z" transform="translate(530.84548 -126.14984)" stroke-width="0" stroke-linejoin="miter" stroke-miterlimit="2" fill="#394a7a" stroke="#394a7a"></path> </g>
             </g>
      <image xlink:href="" id="icon" x="0" y="0" style="display: none;"></image>
    </g>
    </svg>
